<mxfile host="app.diagrams.net" modified="2024-06-03T12:16:32.206Z" agent="Mozilla/5.0 (X11; Ubuntu; Linux x86_64; rv:126.0) Gecko/20100101 Firefox/126.0" etag="XlWvlu5tIXiwI6vBcG94" version="24.4.13" type="device">
  <diagram name="Page-1" id="3Ow3zRcLLGwpjQ1MBgYf">
    <mxGraphModel dx="1434" dy="725" grid="1" gridSize="10" guides="1" tooltips="1" connect="1" arrows="1" fold="1" page="1" pageScale="1" pageWidth="120" pageHeight="120" background="none" math="0" shadow="0">
      <root>
        <mxCell id="0" />
        <mxCell id="1" parent="0" />
        <mxCell id="OXI0wuZsWgz1wR4oqhxJ-1" value="Abonnée" style="swimlane;fontStyle=1;align=center;verticalAlign=top;childLayout=stackLayout;horizontal=1;startSize=26;horizontalStack=0;resizeParent=1;resizeParentMax=0;resizeLast=0;collapsible=1;marginBottom=0;whiteSpace=wrap;html=1;" vertex="1" parent="1">
          <mxGeometry x="40" y="30" width="160" height="190" as="geometry" />
        </mxCell>
        <mxCell id="OXI0wuZsWgz1wR4oqhxJ-2" value="&lt;div&gt;id : INT&lt;br&gt;&lt;/div&gt;&lt;div&gt;nom : VARCHAR&lt;br&gt;&lt;/div&gt;&lt;div&gt;prenom : VARCHAR&lt;br&gt;&lt;/div&gt;&lt;div&gt;adresse : VARCHAR&lt;br&gt;&lt;/div&gt;&lt;div&gt;date_cotisation : DATE&lt;br&gt;&lt;/div&gt;&lt;div&gt;emprunt : BOOLEAN&lt;br&gt;&lt;/div&gt;" style="text;strokeColor=none;fillColor=none;align=left;verticalAlign=top;spacingLeft=4;spacingRight=4;overflow=hidden;rotatable=0;points=[[0,0.5],[1,0.5]];portConstraint=eastwest;whiteSpace=wrap;html=1;" vertex="1" parent="OXI0wuZsWgz1wR4oqhxJ-1">
          <mxGeometry y="26" width="160" height="94" as="geometry" />
        </mxCell>
        <mxCell id="OXI0wuZsWgz1wR4oqhxJ-3" value="" style="line;strokeWidth=1;fillColor=none;align=left;verticalAlign=middle;spacingTop=-1;spacingLeft=3;spacingRight=3;rotatable=0;labelPosition=right;points=[];portConstraint=eastwest;strokeColor=inherit;" vertex="1" parent="OXI0wuZsWgz1wR4oqhxJ-1">
          <mxGeometry y="120" width="160" height="8" as="geometry" />
        </mxCell>
        <mxCell id="OXI0wuZsWgz1wR4oqhxJ-4" value="&lt;div&gt;consulterDocument()&lt;/div&gt;&lt;div&gt;emprunterDocument()&lt;/div&gt;&lt;div&gt;modifierCoordonnee()&lt;/div&gt;&lt;div&gt;consulterEtatAbonne()&lt;br&gt;&lt;/div&gt;" style="text;strokeColor=none;fillColor=none;align=left;verticalAlign=top;spacingLeft=4;spacingRight=4;overflow=hidden;rotatable=0;points=[[0,0.5],[1,0.5]];portConstraint=eastwest;whiteSpace=wrap;html=1;" vertex="1" parent="OXI0wuZsWgz1wR4oqhxJ-1">
          <mxGeometry y="128" width="160" height="62" as="geometry" />
        </mxCell>
        <mxCell id="OXI0wuZsWgz1wR4oqhxJ-5" value="Emprunt" style="swimlane;fontStyle=1;align=center;verticalAlign=top;childLayout=stackLayout;horizontal=1;startSize=26;horizontalStack=0;resizeParent=1;resizeParentMax=0;resizeLast=0;collapsible=1;marginBottom=0;whiteSpace=wrap;html=1;" vertex="1" parent="1">
          <mxGeometry x="300" y="50" width="160" height="114" as="geometry" />
        </mxCell>
        <mxCell id="OXI0wuZsWgz1wR4oqhxJ-6" value="&lt;div&gt;id_abonne : INT&lt;br&gt;&lt;/div&gt;&lt;div&gt;id_document : INT&lt;br&gt;&lt;/div&gt;&lt;div&gt;date_emprunt : DATE&lt;br&gt;&lt;/div&gt;" style="text;strokeColor=none;fillColor=none;align=left;verticalAlign=top;spacingLeft=4;spacingRight=4;overflow=hidden;rotatable=0;points=[[0,0.5],[1,0.5]];portConstraint=eastwest;whiteSpace=wrap;html=1;" vertex="1" parent="OXI0wuZsWgz1wR4oqhxJ-5">
          <mxGeometry y="26" width="160" height="54" as="geometry" />
        </mxCell>
        <mxCell id="OXI0wuZsWgz1wR4oqhxJ-7" value="" style="line;strokeWidth=1;fillColor=none;align=left;verticalAlign=middle;spacingTop=-1;spacingLeft=3;spacingRight=3;rotatable=0;labelPosition=right;points=[];portConstraint=eastwest;strokeColor=inherit;" vertex="1" parent="OXI0wuZsWgz1wR4oqhxJ-5">
          <mxGeometry y="80" width="160" height="8" as="geometry" />
        </mxCell>
        <mxCell id="OXI0wuZsWgz1wR4oqhxJ-8" value="relancerAbonnee" style="text;strokeColor=none;fillColor=none;align=left;verticalAlign=top;spacingLeft=4;spacingRight=4;overflow=hidden;rotatable=0;points=[[0,0.5],[1,0.5]];portConstraint=eastwest;whiteSpace=wrap;html=1;" vertex="1" parent="OXI0wuZsWgz1wR4oqhxJ-5">
          <mxGeometry y="88" width="160" height="26" as="geometry" />
        </mxCell>
        <mxCell id="OXI0wuZsWgz1wR4oqhxJ-9" value="Personnel" style="swimlane;fontStyle=1;align=center;verticalAlign=top;childLayout=stackLayout;horizontal=1;startSize=26;horizontalStack=0;resizeParent=1;resizeParentMax=0;resizeLast=0;collapsible=1;marginBottom=0;whiteSpace=wrap;html=1;" vertex="1" parent="1">
          <mxGeometry x="640" y="295" width="160" height="140" as="geometry" />
        </mxCell>
        <mxCell id="OXI0wuZsWgz1wR4oqhxJ-10" value="&lt;div&gt;id : INT&lt;br&gt;&lt;/div&gt;&lt;div&gt;nom : VARCHAR&lt;br&gt;&lt;/div&gt;&lt;div&gt;role : VARCHAR&lt;br&gt;&lt;/div&gt;" style="text;strokeColor=none;fillColor=none;align=left;verticalAlign=top;spacingLeft=4;spacingRight=4;overflow=hidden;rotatable=0;points=[[0,0.5],[1,0.5]];portConstraint=eastwest;whiteSpace=wrap;html=1;" vertex="1" parent="OXI0wuZsWgz1wR4oqhxJ-9">
          <mxGeometry y="26" width="160" height="54" as="geometry" />
        </mxCell>
        <mxCell id="OXI0wuZsWgz1wR4oqhxJ-11" value="" style="line;strokeWidth=1;fillColor=none;align=left;verticalAlign=middle;spacingTop=-1;spacingLeft=3;spacingRight=3;rotatable=0;labelPosition=right;points=[];portConstraint=eastwest;strokeColor=inherit;" vertex="1" parent="OXI0wuZsWgz1wR4oqhxJ-9">
          <mxGeometry y="80" width="160" height="8" as="geometry" />
        </mxCell>
        <mxCell id="OXI0wuZsWgz1wR4oqhxJ-12" value="&lt;div&gt;inscrireNouvelAbonnee()&lt;/div&gt;&lt;div&gt;enregistrerEmprunt()&lt;br&gt;&lt;/div&gt;consulterEtatAbonnee()" style="text;strokeColor=none;fillColor=none;align=left;verticalAlign=top;spacingLeft=4;spacingRight=4;overflow=hidden;rotatable=0;points=[[0,0.5],[1,0.5]];portConstraint=eastwest;whiteSpace=wrap;html=1;" vertex="1" parent="OXI0wuZsWgz1wR4oqhxJ-9">
          <mxGeometry y="88" width="160" height="52" as="geometry" />
        </mxCell>
        <mxCell id="OXI0wuZsWgz1wR4oqhxJ-25" style="edgeStyle=orthogonalEdgeStyle;rounded=0;orthogonalLoop=1;jettySize=auto;html=1;exitX=0.5;exitY=1;exitDx=0;exitDy=0;entryX=0.5;entryY=0;entryDx=0;entryDy=0;" edge="1" parent="1" source="OXI0wuZsWgz1wR4oqhxJ-13" target="OXI0wuZsWgz1wR4oqhxJ-17">
          <mxGeometry relative="1" as="geometry" />
        </mxCell>
        <mxCell id="OXI0wuZsWgz1wR4oqhxJ-13" value="Document" style="swimlane;fontStyle=1;align=center;verticalAlign=top;childLayout=stackLayout;horizontal=1;startSize=26;horizontalStack=0;resizeParent=1;resizeParentMax=0;resizeLast=0;collapsible=1;marginBottom=0;whiteSpace=wrap;html=1;" vertex="1" parent="1">
          <mxGeometry x="300" y="290" width="160" height="124" as="geometry" />
        </mxCell>
        <mxCell id="OXI0wuZsWgz1wR4oqhxJ-14" value="&lt;div&gt;id : INT&lt;br&gt;&lt;/div&gt;&lt;div&gt;titre : VARCHAR&lt;br&gt;&lt;/div&gt;&lt;div&gt;auteur : VARCHAR&lt;br&gt;&lt;/div&gt;&lt;div&gt;date_publication : DATE&lt;br&gt;&lt;/div&gt;" style="text;strokeColor=none;fillColor=none;align=left;verticalAlign=top;spacingLeft=4;spacingRight=4;overflow=hidden;rotatable=0;points=[[0,0.5],[1,0.5]];portConstraint=eastwest;whiteSpace=wrap;html=1;" vertex="1" parent="OXI0wuZsWgz1wR4oqhxJ-13">
          <mxGeometry y="26" width="160" height="64" as="geometry" />
        </mxCell>
        <mxCell id="OXI0wuZsWgz1wR4oqhxJ-15" value="" style="line;strokeWidth=1;fillColor=none;align=left;verticalAlign=middle;spacingTop=-1;spacingLeft=3;spacingRight=3;rotatable=0;labelPosition=right;points=[];portConstraint=eastwest;strokeColor=inherit;" vertex="1" parent="OXI0wuZsWgz1wR4oqhxJ-13">
          <mxGeometry y="90" width="160" height="8" as="geometry" />
        </mxCell>
        <mxCell id="OXI0wuZsWgz1wR4oqhxJ-16" value="disponible()" style="text;strokeColor=none;fillColor=none;align=left;verticalAlign=top;spacingLeft=4;spacingRight=4;overflow=hidden;rotatable=0;points=[[0,0.5],[1,0.5]];portConstraint=eastwest;whiteSpace=wrap;html=1;" vertex="1" parent="OXI0wuZsWgz1wR4oqhxJ-13">
          <mxGeometry y="98" width="160" height="26" as="geometry" />
        </mxCell>
        <mxCell id="OXI0wuZsWgz1wR4oqhxJ-17" value="EtatAbonnée" style="swimlane;fontStyle=1;align=center;verticalAlign=top;childLayout=stackLayout;horizontal=1;startSize=26;horizontalStack=0;resizeParent=1;resizeParentMax=0;resizeLast=0;collapsible=1;marginBottom=0;whiteSpace=wrap;html=1;" vertex="1" parent="1">
          <mxGeometry x="300" y="470" width="160" height="94" as="geometry" />
        </mxCell>
        <mxCell id="OXI0wuZsWgz1wR4oqhxJ-18" value="&lt;div&gt;id_abonne : INT&lt;br&gt;&lt;/div&gt;&lt;div&gt;nombre_emprunt : INT&lt;br&gt;&lt;/div&gt;" style="text;strokeColor=none;fillColor=none;align=left;verticalAlign=top;spacingLeft=4;spacingRight=4;overflow=hidden;rotatable=0;points=[[0,0.5],[1,0.5]];portConstraint=eastwest;whiteSpace=wrap;html=1;" vertex="1" parent="OXI0wuZsWgz1wR4oqhxJ-17">
          <mxGeometry y="26" width="160" height="34" as="geometry" />
        </mxCell>
        <mxCell id="OXI0wuZsWgz1wR4oqhxJ-19" value="" style="line;strokeWidth=1;fillColor=none;align=left;verticalAlign=middle;spacingTop=-1;spacingLeft=3;spacingRight=3;rotatable=0;labelPosition=right;points=[];portConstraint=eastwest;strokeColor=inherit;" vertex="1" parent="OXI0wuZsWgz1wR4oqhxJ-17">
          <mxGeometry y="60" width="160" height="8" as="geometry" />
        </mxCell>
        <mxCell id="OXI0wuZsWgz1wR4oqhxJ-20" value="gtNombreEmprunt()" style="text;strokeColor=none;fillColor=none;align=left;verticalAlign=top;spacingLeft=4;spacingRight=4;overflow=hidden;rotatable=0;points=[[0,0.5],[1,0.5]];portConstraint=eastwest;whiteSpace=wrap;html=1;" vertex="1" parent="OXI0wuZsWgz1wR4oqhxJ-17">
          <mxGeometry y="68" width="160" height="26" as="geometry" />
        </mxCell>
        <mxCell id="OXI0wuZsWgz1wR4oqhxJ-21" style="edgeStyle=orthogonalEdgeStyle;rounded=0;orthogonalLoop=1;jettySize=auto;html=1;exitX=1;exitY=0.5;exitDx=0;exitDy=0;entryX=0;entryY=0.5;entryDx=0;entryDy=0;" edge="1" parent="1" source="OXI0wuZsWgz1wR4oqhxJ-2" target="OXI0wuZsWgz1wR4oqhxJ-6">
          <mxGeometry relative="1" as="geometry" />
        </mxCell>
        <mxCell id="OXI0wuZsWgz1wR4oqhxJ-22" style="edgeStyle=orthogonalEdgeStyle;rounded=0;orthogonalLoop=1;jettySize=auto;html=1;exitX=1;exitY=0.5;exitDx=0;exitDy=0;entryX=0;entryY=0.5;entryDx=0;entryDy=0;" edge="1" parent="1" source="OXI0wuZsWgz1wR4oqhxJ-6" target="OXI0wuZsWgz1wR4oqhxJ-14">
          <mxGeometry relative="1" as="geometry" />
        </mxCell>
        <mxCell id="OXI0wuZsWgz1wR4oqhxJ-24" style="edgeStyle=orthogonalEdgeStyle;rounded=0;orthogonalLoop=1;jettySize=auto;html=1;exitX=1;exitY=0.5;exitDx=0;exitDy=0;entryX=0;entryY=0.5;entryDx=0;entryDy=0;" edge="1" parent="1" source="OXI0wuZsWgz1wR4oqhxJ-14" target="OXI0wuZsWgz1wR4oqhxJ-10">
          <mxGeometry relative="1" as="geometry" />
        </mxCell>
        <mxCell id="OXI0wuZsWgz1wR4oqhxJ-26" value="&lt;div&gt;1&lt;/div&gt;" style="text;html=1;align=center;verticalAlign=middle;resizable=0;points=[];autosize=1;strokeColor=none;fillColor=none;" vertex="1" parent="1">
          <mxGeometry x="200" y="70" width="30" height="30" as="geometry" />
        </mxCell>
        <mxCell id="OXI0wuZsWgz1wR4oqhxJ-27" value="0" style="text;html=1;align=center;verticalAlign=middle;resizable=0;points=[];autosize=1;strokeColor=none;fillColor=none;" vertex="1" parent="1">
          <mxGeometry x="270" y="70" width="30" height="30" as="geometry" />
        </mxCell>
        <mxCell id="OXI0wuZsWgz1wR4oqhxJ-28" value="0" style="text;html=1;align=center;verticalAlign=middle;resizable=0;points=[];autosize=1;strokeColor=none;fillColor=none;" vertex="1" parent="1">
          <mxGeometry x="460" y="70" width="30" height="30" as="geometry" />
        </mxCell>
        <mxCell id="OXI0wuZsWgz1wR4oqhxJ-29" value="1" style="text;html=1;align=center;verticalAlign=middle;resizable=0;points=[];autosize=1;strokeColor=none;fillColor=none;" vertex="1" parent="1">
          <mxGeometry x="250" y="330" width="30" height="30" as="geometry" />
        </mxCell>
        <mxCell id="OXI0wuZsWgz1wR4oqhxJ-30" value="*" style="text;html=1;align=center;verticalAlign=middle;resizable=0;points=[];autosize=1;strokeColor=none;fillColor=none;" vertex="1" parent="1">
          <mxGeometry x="610" y="318" width="30" height="30" as="geometry" />
        </mxCell>
        <mxCell id="OXI0wuZsWgz1wR4oqhxJ-31" value="*" style="text;html=1;align=center;verticalAlign=middle;resizable=0;points=[];autosize=1;strokeColor=none;fillColor=none;" vertex="1" parent="1">
          <mxGeometry x="460" y="318" width="30" height="30" as="geometry" />
        </mxCell>
        <mxCell id="OXI0wuZsWgz1wR4oqhxJ-32" value="1" style="text;html=1;align=center;verticalAlign=middle;resizable=0;points=[];autosize=1;strokeColor=none;fillColor=none;" vertex="1" parent="1">
          <mxGeometry x="385" y="440" width="30" height="30" as="geometry" />
        </mxCell>
        <mxCell id="OXI0wuZsWgz1wR4oqhxJ-33" value="1" style="text;html=1;align=center;verticalAlign=middle;resizable=0;points=[];autosize=1;strokeColor=none;fillColor=none;" vertex="1" parent="1">
          <mxGeometry x="385" y="414" width="30" height="30" as="geometry" />
        </mxCell>
      </root>
    </mxGraphModel>
  </diagram>
</mxfile>
